<svg xmlns="http://www.w3.org/2000/svg" width="980" height="280" viewBox="0 0 980 280"><rect width="980" height="280" fill="#F6F2EC"/><text x="45" y="54" font-family="Cormorant Garamond, Georgia, serif" font-size="38" fill="#2B2B2B">Backyard Studio colour palette</text><rect x="45" y="88" width="116" height="92" rx="18" fill="#F6F2EC" stroke="#D8CFC2"/><text x="45" y="214" font-family="Inter, Arial" font-size="15" fill="#2B2B2B">Background</text><text x="45" y="236" font-family="Inter, Arial" font-size="13" fill="#666">#F6F2EC</text><rect x="195" y="88" width="116" height="92" rx="18" fill="#FFFFFF" stroke="#D8CFC2"/><text x="195" y="214" font-family="Inter, Arial" font-size="15" fill="#2B2B2B">Surface</text><text x="195" y="236" font-family="Inter, Arial" font-size="13" fill="#666">#FFFFFF</text><rect x="345" y="88" width="116" height="92" rx="18" fill="#2B2B2B" stroke="#D8CFC2"/><text x="345" y="214" font-family="Inter, Arial" font-size="15" fill="#2B2B2B">Charcoal</text><text x="345" y="236" font-family="Inter, Arial" font-size="13" fill="#666">#2B2B2B</text><rect x="495" y="88" width="116" height="92" rx="18" fill="#7D8478" stroke="#D8CFC2"/><text x="495" y="214" font-family="Inter, Arial" font-size="15" fill="#2B2B2B">Olive grey</text><text x="495" y="236" font-family="Inter, Arial" font-size="13" fill="#666">#7D8478</text><rect x="645" y="88" width="116" height="92" rx="18" fill="#B7A58F" stroke="#D8CFC2"/><text x="645" y="214" font-family="Inter, Arial" font-size="15" fill="#2B2B2B">Sandstone</text><text x="645" y="236" font-family="Inter, Arial" font-size="13" fill="#666">#B7A58F</text><rect x="795" y="88" width="116" height="92" rx="18" fill="#B89B5E" stroke="#D8CFC2"/><text x="795" y="214" font-family="Inter, Arial" font-size="15" fill="#2B2B2B">Soft gold</text><text x="795" y="236" font-family="Inter, Arial" font-size="13" fill="#666">#B89B5E</text></svg>
